<svg xmlns="http://www.w3.org/2000/svg" width="512" height="512" viewBox="0 0 512 512">
<g>
<path d="M 192.37 394.93 C189.24,397.39 187.08,397.54 184.44,395.50 C182.90,394.30 182.85,394.12 184.21,394.59 C186.88,395.52 192.99,393.15 192.34,391.44 C192.00,390.55 192.40,390.00 193.39,390.00 C195.85,390.00 195.31,392.61 192.37,394.93 ZM 242.50 446.02 C238.06,447.44 227.00,448.42 227.00,447.39 C227.00,446.90 228.46,446.40 230.25,446.27 C232.04,446.14 236.20,445.82 239.50,445.55 C244.26,445.16 244.88,445.26 242.50,446.02 ZM 165.63 345.71 C164.54,346.97 163.35,348.00 163.01,348.00 C162.66,348.00 161.05,346.58 159.44,344.84 C156.83,342.03 156.78,341.86 158.97,343.34 C162.27,345.56 163.89,345.43 166.85,342.75 C169.54,340.30 168.83,342.03 165.63,345.71 ZM 334.80 380.68 C334.14,382.51 333.24,384.00 332.80,384.00 C331.27,384.00 332.01,380.29 334.00,378.00 C336.30,375.35 336.49,376.00 334.80,380.68 ZM 127.36 290.50 C127.05,291.33 126.72,291.97 126.64,291.92 C126.56,291.88 124.93,291.24 123.00,290.50 L 119.50 289.15 L 123.72 289.08 C127.08,289.02 127.82,289.31 127.36,290.50 ZM 130.47 196.00 C129.75,196.00 128.34,196.26 127.33,196.58 C125.61,197.12 125.61,197.08 127.26,196.02 C128.23,195.40 130.70,194.23 132.76,193.41 L 136.50 191.94 L 134.14 193.97 C132.84,195.09 131.19,196.00 130.47,196.00 ZM 221.60 380.16 C222.89,380.41 222.17,381.02 219.23,382.18 C216.90,383.09 215.00,383.50 215.00,383.09 C215.00,381.83 219.62,379.78 221.60,380.16 ZM 274.24 252.47 C274.94,253.71 274.80,254.63 273.77,255.65 C272.52,256.91 272.39,256.69 272.80,253.91 C273.19,251.23 273.42,251.00 274.24,252.47 Z" fill="rgb(219,94,40)"/>
<path d="M 221.60 380.16 C219.62,379.78 215.00,381.83 215.00,383.09 C215.00,383.26 215.33,383.29 215.88,383.20 C214.27,383.78 213.06,384.16 212.50,384.27 C210.85,384.60 208.78,385.14 207.90,385.48 C206.32,386.09 203.64,383.99 181.10,364.50 L 173.01 357.50 L 222.22 308.31 C249.28,281.26 271.75,258.31 272.14,257.31 C272.32,256.87 272.47,256.43 272.60,256.00 C272.64,256.65 272.99,256.44 273.77,255.65 C274.80,254.63 274.94,253.71 274.24,252.47 C273.62,251.36 273.34,251.22 273.07,252.36 C272.83,248.44 269.78,246.00 264.55,246.00 C260.66,246.00 259.92,246.62 240.46,266.25 C216.92,289.99 182.06,326.56 173.50,336.50 C171.41,338.93 169.16,341.52 167.49,343.43 C168.97,341.44 168.89,340.89 166.85,342.75 C163.89,345.43 162.27,345.56 158.97,343.34 C156.78,341.86 156.83,342.03 159.44,344.84 C160.02,345.47 160.61,346.06 161.14,346.56 L 158.31 343.98 C155.66,341.57 150.35,336.56 146.50,332.85 C142.65,329.14 137.55,324.39 135.17,322.28 L 130.84 318.46 L 133.37 309.48 C144.34,270.51 155.24,242.58 172.53,209.14 C206.11,144.19 242.91,106.06 294.37,82.89 C305.93,77.68 317.66,72.96 321.50,71.97 C323.15,71.55 329.00,69.84 334.50,68.18 C363.20,59.50 390.95,55.27 425.57,54.31 L 447.65 53.69 L 449.34 62.60 C450.26,67.49 451.48,76.00 452.04,81.50 C453.45,95.50 453.48,138.82 452.08,148.50 C451.44,152.90 450.44,159.88 449.85,164.00 C448.28,175.04 441.41,199.57 436.82,210.50 C432.07,221.83 426.17,232.87 419.29,243.32 C415.28,249.40 412.00,254.56 412.00,254.77 C412.00,255.55 404.44,264.64 398.54,270.97 C389.99,280.13 374.02,295.16 367.78,299.92 C364.88,302.13 360.02,305.88 357.00,308.25 C348.42,314.95 337.05,323.04 335.23,323.74 C334.32,324.09 330.74,326.32 327.28,328.69 C323.81,331.06 320.71,333.00 320.37,333.00 C320.04,333.00 316.78,334.97 313.13,337.39 C301.66,344.97 262.07,365.11 249.00,370.01 C247.07,370.73 245.07,371.70 244.55,372.16 C244.03,372.62 243.01,373.00 242.29,373.00 C241.57,373.00 235.24,375.40 228.24,378.34 C226.07,379.25 223.89,380.14 221.86,380.94 C222.41,380.55 222.31,380.30 221.60,380.16 ZM 318.00 243.38 C323.60,244.03 337.11,242.99 342.00,241.53 C378.31,230.68 396.44,190.66 379.84,157.95 C374.21,146.85 360.69,135.19 348.63,131.04 C335.78,126.62 324.93,126.22 311.00,129.66 C292.51,134.21 276.05,148.72 270.99,164.93 C269.87,168.54 268.51,172.88 267.97,174.57 C266.45,179.39 266.81,194.01 268.61,200.07 C273.90,217.87 282.82,228.29 301.58,238.57 C304.49,240.16 313.80,242.89 318.00,243.38 ZM 78.00 462.17 C72.22,463.30 65.81,464.44 63.75,464.71 L 63.52 464.75 C62.03,464.94 61.10,465.07 60.58,464.66 C59.70,463.97 60.02,461.74 60.89,455.74 L 60.96 455.19 C61.49,451.51 62.43,444.90 63.04,440.50 C65.80,420.65 70.76,401.13 75.97,389.62 C79.97,380.78 87.17,371.57 93.23,367.55 C104.53,360.05 120.19,357.01 128.15,360.78 C133.96,363.52 161.04,388.30 163.59,393.20 C165.85,397.53 165.48,413.10 163.00,418.24 C161.90,420.51 161.00,422.74 161.00,423.18 C161.00,424.86 153.62,433.66 149.16,437.30 C146.60,439.39 141.93,442.43 138.78,444.05 C127.86,449.68 101.02,457.68 78.00,462.17 ZM 340.21 228.49 C333.52,230.91 322.65,231.73 316.50,230.30 C294.83,225.26 280.08,207.10 280.02,185.41 C279.99,172.77 283.93,163.06 292.90,153.70 C301.65,144.58 312.81,140.00 326.29,140.00 C345.91,140.00 360.78,148.87 369.03,165.50 C372.38,172.27 372.50,172.89 372.50,184.00 C372.50,194.53 372.27,195.96 369.76,201.00 C364.22,212.13 362.78,213.96 353.00,222.43 C350.76,224.36 347.90,225.72 340.21,228.49 ZM 130.47 196.00 C131.19,196.00 132.84,195.09 134.14,193.97 L 135.87 192.48 C138.89,191.28 142.04,190.14 145.30,189.05 C161.53,183.60 173.69,180.35 174.55,181.22 C174.88,181.55 174.43,183.09 173.55,184.66 C172.67,186.22 170.58,189.98 168.89,193.00 C167.21,196.02 165.09,199.62 164.20,201.00 C161.76,204.73 150.90,227.10 145.99,238.50 C143.61,244.00 141.34,248.95 140.93,249.50 C139.57,251.33 130.45,278.34 128.05,287.65 L 127.48 289.86 C127.39,289.20 126.37,289.03 123.72,289.08 L 119.50 289.15 L 123.00 290.50 C123.41,290.66 123.81,290.81 124.18,290.96 L 122.33 290.40 C119.66,289.60 113.34,289.00 107.50,289.00 C97.11,289.00 91.20,290.35 81.50,294.93 C79.30,295.97 74.01,300.05 69.75,303.99 C60.80,312.27 60.40,312.12 60.66,300.47 C61.06,282.82 67.35,260.36 76.66,243.34 C88.38,221.91 103.75,207.29 126.45,196.55 C125.68,197.07 125.97,197.00 127.33,196.58 C128.34,196.26 129.75,196.00 130.47,196.00 ZM 242.50 446.02 C244.88,445.26 244.26,445.16 239.50,445.55 C236.20,445.82 232.04,446.14 230.25,446.27 C228.81,446.37 227.58,446.72 227.16,447.10 C226.90,446.79 226.70,446.38 226.46,445.85 C225.54,443.77 226.04,442.82 230.87,437.52 C233.87,434.23 237.49,429.05 238.91,426.02 C241.19,421.16 241.50,419.25 241.46,410.00 C241.43,400.81 241.10,398.79 238.79,393.81 C236.84,389.59 236.46,387.87 237.33,387.18 C237.97,386.67 244.57,383.85 252.00,380.92 C267.85,374.65 303.01,357.39 314.63,350.17 C319.11,347.39 327.49,341.94 333.27,338.06 C339.05,334.18 344.05,331.00 344.39,331.00 C346.19,331.00 343.40,356.52 341.13,360.76 C340.51,361.92 340.00,363.65 340.00,364.61 C340.00,366.05 337.90,372.25 335.77,377.69 C336.22,375.89 335.66,376.09 334.00,378.00 C332.01,380.29 331.27,384.00 332.80,384.00 C332.91,384.00 333.06,383.90 333.23,383.71 C332.75,384.72 332.34,385.52 332.02,386.00 C331.10,387.38 328.58,391.19 326.42,394.47 C318.25,406.92 305.46,418.68 290.30,427.66 C274.83,436.84 265.86,440.46 247.50,444.91 C245.90,445.30 244.14,445.69 242.39,446.06 C242.43,446.04 242.46,446.03 242.50,446.02 ZM 153.93 362.37 C152.79,363.81 151.10,364.99 150.18,364.98 C148.66,364.96 126.80,344.65 122.55,339.32 C120.89,337.24 120.90,336.98 122.62,334.07 C123.62,332.38 125.21,331.00 126.16,331.00 C128.14,331.00 156.00,356.69 156.00,358.52 C156.00,359.19 155.07,360.92 153.93,362.37 ZM 184.50 395.54 C183.68,395.06 182.75,394.44 181.68,393.68 C175.07,388.98 157.00,372.09 157.00,370.61 C157.00,369.33 162.25,365.00 163.80,365.00 C164.29,365.00 165.55,365.96 166.60,367.13 C169.55,370.44 193.07,390.00 194.09,390.00 C195.02,390.00 195.23,390.74 194.87,391.73 C195.14,390.72 194.68,390.00 193.39,390.00 C192.40,390.00 192.00,390.55 192.34,391.44 C192.99,393.15 186.88,395.52 184.21,394.59 C182.85,394.12 182.90,394.30 184.44,395.50 C184.46,395.51 184.48,395.53 184.50,395.54 ZM 228.30 447.78 C229.60,447.87 231.74,447.77 234.04,447.53 C233.66,447.58 233.31,447.62 233.00,447.65 C230.57,447.90 229.18,447.99 228.30,447.78 ZM 161.79 347.15 C162.39,347.68 162.84,348.00 163.01,348.00 C163.18,348.00 163.56,347.75 164.03,347.33 L 163.11 348.36 ZM 126.80 291.74 C126.91,291.56 127.06,291.24 127.22,290.85 L 126.98 291.80 ZM 192.37 394.93 C191.17,395.86 190.20,396.47 189.22,396.71 C190.19,396.43 191.21,395.84 192.37,394.93 Z" fill="rgb(239,81,7)"/>
<path d="M 0.00 256.00 L 0.00 0.00 L 256.00 0.00 L 512.00 0.00 L 512.00 256.00 L 512.00 512.00 L 256.00 512.00 L 0.00 512.00 L 0.00 256.00 ZM 78.00 462.17 C101.02,457.68 127.86,449.68 138.78,444.05 C141.93,442.43 146.60,439.39 149.16,437.30 C153.62,433.66 161.00,424.86 161.00,423.18 C161.00,422.74 161.90,420.51 163.00,418.24 C165.48,413.10 165.85,397.53 163.59,393.20 C161.04,388.30 133.96,363.52 128.15,360.78 C120.19,357.01 104.53,360.05 93.23,367.55 C87.17,371.57 79.97,380.78 75.97,389.62 C70.76,401.13 65.80,420.65 63.04,440.50 C62.43,444.90 61.49,451.51 60.96,455.19 C59.48,465.46 59.43,465.28 63.75,464.71 C65.81,464.44 72.22,463.30 78.00,462.17 ZM 247.50 444.91 C265.86,440.46 274.83,436.84 290.30,427.66 C305.46,418.68 318.25,406.92 326.42,394.47 C328.58,391.19 331.10,387.38 332.02,386.00 C334.06,382.95 340.00,367.03 340.00,364.61 C340.00,363.65 340.51,361.92 341.13,360.76 C343.40,356.52 346.19,331.00 344.39,331.00 C344.05,331.00 339.05,334.18 333.27,338.06 C327.49,341.94 319.11,347.39 314.63,350.17 C303.01,357.39 267.85,374.65 252.00,380.92 C244.57,383.85 237.97,386.67 237.33,387.18 C236.46,387.87 236.84,389.59 238.79,393.81 C241.10,398.79 241.43,400.81 241.46,410.00 C241.50,419.25 241.19,421.16 238.91,426.02 C237.49,429.05 233.87,434.23 230.87,437.52 C226.04,442.82 225.54,443.77 226.46,445.85 C227.42,448.02 227.93,448.16 233.00,447.65 C236.02,447.35 242.55,446.12 247.50,444.91 ZM 192.37 394.93 C194.92,392.92 195.94,390.00 194.09,390.00 C193.07,390.00 169.55,370.44 166.60,367.13 C165.55,365.96 164.29,365.00 163.80,365.00 C162.25,365.00 157.00,369.33 157.00,370.61 C157.00,372.09 175.07,388.98 181.68,393.68 C187.13,397.55 188.78,397.75 192.37,394.93 ZM 212.50 384.27 C214.15,383.95 221.23,381.28 228.24,378.34 C235.24,375.40 241.57,373.00 242.29,373.00 C243.01,373.00 244.03,372.62 244.55,372.16 C245.07,371.70 247.07,370.73 249.00,370.01 C262.07,365.11 301.66,344.97 313.13,337.39 C316.78,334.97 320.04,333.00 320.37,333.00 C320.71,333.00 323.81,331.06 327.28,328.69 C330.74,326.32 334.32,324.09 335.23,323.74 C337.05,323.04 348.42,314.95 357.00,308.25 C360.02,305.88 364.88,302.13 367.78,299.92 C374.02,295.16 389.99,280.13 398.54,270.97 C404.44,264.64 412.00,255.55 412.00,254.77 C412.00,254.56 415.28,249.40 419.29,243.32 C426.17,232.87 432.07,221.83 436.82,210.50 C441.41,199.57 448.28,175.04 449.85,164.00 C450.44,159.88 451.44,152.90 452.08,148.50 C453.48,138.82 453.45,95.50 452.04,81.50 C451.48,76.00 450.26,67.49 449.34,62.60 L 447.65 53.69 L 425.57 54.31 C390.95,55.27 363.20,59.50 334.50,68.18 C329.00,69.84 323.15,71.55 321.50,71.97 C317.66,72.96 305.93,77.68 294.37,82.89 C242.91,106.06 206.11,144.19 172.53,209.14 C155.24,242.58 144.34,270.51 133.37,309.48 L 130.84 318.46 L 135.17 322.28 C137.55,324.39 142.65,329.14 146.50,332.85 C150.35,336.56 155.66,341.57 158.31,343.98 L 163.11 348.36 L 165.31 345.91 C166.51,344.57 170.20,340.33 173.50,336.50 C182.06,326.56 216.92,289.99 240.46,266.25 C259.92,246.62 260.66,246.00 264.55,246.00 C271.72,246.00 274.80,250.58 272.14,257.31 C271.75,258.31 249.28,281.26 222.22,308.31 L 173.01 357.50 L 181.10 364.50 C203.64,383.99 206.32,386.09 207.90,385.48 C208.78,385.14 210.85,384.60 212.50,384.27 ZM 153.93 362.37 C155.07,360.92 156.00,359.19 156.00,358.52 C156.00,356.69 128.14,331.00 126.16,331.00 C125.21,331.00 123.62,332.38 122.62,334.07 C120.90,336.98 120.89,337.24 122.55,339.32 C126.80,344.65 148.66,364.96 150.18,364.98 C151.10,364.99 152.79,363.81 153.93,362.37 ZM 81.50 294.93 C91.20,290.35 97.11,289.00 107.50,289.00 C113.34,289.00 119.66,289.60 122.33,290.40 L 126.98 291.80 L 128.05 287.65 C130.45,278.34 139.57,251.33 140.93,249.50 C141.34,248.95 143.61,244.00 145.99,238.50 C150.90,227.10 161.76,204.73 164.20,201.00 C165.09,199.62 167.21,196.02 168.89,193.00 C170.58,189.98 172.67,186.22 173.55,184.66 C174.43,183.09 174.88,181.55 174.55,181.22 C173.69,180.35 161.53,183.60 145.30,189.05 C111.83,200.27 91.37,216.45 76.66,243.34 C67.35,260.36 61.06,282.82 60.66,300.47 C60.40,312.12 60.80,312.27 69.75,303.99 C74.01,300.05 79.30,295.97 81.50,294.93 ZM 318.00 243.38 C313.80,242.89 304.49,240.16 301.58,238.57 C282.82,228.29 273.90,217.87 268.61,200.07 C266.81,194.01 266.45,179.39 267.97,174.57 C268.51,172.88 269.87,168.54 270.99,164.93 C276.05,148.72 292.51,134.21 311.00,129.66 C324.93,126.22 335.78,126.62 348.63,131.04 C360.69,135.19 374.21,146.85 379.84,157.95 C396.44,190.66 378.31,230.68 342.00,241.53 C337.11,242.99 323.60,244.03 318.00,243.38 ZM 340.21 228.49 C347.90,225.72 350.76,224.36 353.00,222.43 C362.78,213.96 364.22,212.13 369.76,201.00 C372.27,195.96 372.50,194.53 372.50,184.00 C372.50,172.89 372.38,172.27 369.03,165.50 C360.78,148.87 345.91,140.00 326.29,140.00 C312.81,140.00 301.65,144.58 292.90,153.70 C283.93,163.06 279.99,172.77 280.02,185.41 C280.08,207.10 294.83,225.26 316.50,230.30 C322.65,231.73 333.52,230.91 340.21,228.49 Z" fill="rgb(254,254,254)"/>
</g>
</svg>